<?xml version="1.0" encoding="utf-8"?>
<!-- Generator: Adobe Illustrator 27.7.0, SVG Export Plug-In . SVG Version: 6.00 Build 0)  -->
<svg version="1.1" id="Layer_1" xmlns="http://www.w3.org/2000/svg" xmlns:xlink="http://www.w3.org/1999/xlink" x="0px" y="0px"
	 viewBox="0 0 496.1 496.4" style="enable-background:new 0 0 496.1 496.4;" xml:space="preserve">
<style type="text/css">
	.st0{fill:#FFFFFF;}
</style>
<path class="st0" d="M495.9,248.1c0,34.8-0.7,69.7,0.2,104.5c1.5,61.6-37.2,109.2-86.5,130.4c-19.8,8.5-40.6,13-62.1,13
	c-67.3,0.1-134.7,1-202-0.3c-50.7-1-92.4-22.2-122.3-64C7.5,409.7,0,384.7,0,357.6v-215c0-58.5,28.5-99.4,79.1-126
	c22-11.5,45.9-16.4,70.8-16.5c65.3,0,130.7-0.4,196,0.2c50.7,0.4,93,19.8,124.2,60.6c17.4,22.8,25.8,49,25.8,77.8V248.1z
	 M36.9,248.1v110c0,16.4,3.8,31.8,12.3,45.7c22.3,36.5,56,54.3,97.8,55c67.1,1,134.3,0.4,201.5,0.2c16.5,0,32.5-3.4,47.4-10.5
	c40.6-19.4,63.3-50.3,63.1-96.7c-0.4-71-0.1-142-0.1-213c0-20.1-5.7-38.5-17.6-54.7c-23-31.1-54.8-46.4-92.8-46.8
	c-67-0.8-134-0.3-201-0.2c-14.3,0-28.1,2.9-41.5,7.9c-36.8,13.7-71,48.4-69.4,99.5C37.8,179.1,36.9,213.6,36.9,248.1L36.9,248.1z"/>
<path class="st0" d="M248.5,354.1c-64.5,0-116.5-51.4-116.6-115.4c-0.1-63,52.3-114.6,116.4-114.6c64.3-0.1,116.5,51.4,116.6,114.9
	C364.9,302.4,312.8,354,248.5,354.1z M248.5,317.1c43.9,0,79.5-35.1,79.4-78.3c-0.1-42.8-35.7-77.8-79.4-77.8
	c-43.9,0-79.7,34.9-79.7,78C168.9,282.2,204.6,317.2,248.5,317.1z M378.4,89.1c13.5,0,24.5,11.5,24.5,25.6
	c-0.1,14.1-11.2,25.5-24.7,25.4c-13.3-0.1-24.2-11.5-24.2-25.3C353.9,100.7,364.9,89.1,378.4,89.1z"/>
</svg>
