<?xml version="1.0" encoding="utf-8"?>
<!-- Generator: Adobe Illustrator 27.7.0, SVG Export Plug-In . SVG Version: 6.00 Build 0)  -->
<svg version="1.1" id="Layer_1" xmlns="http://www.w3.org/2000/svg" xmlns:xlink="http://www.w3.org/1999/xlink" x="0px" y="0px"
	 viewBox="0 0 512 416" style="enable-background:new 0 0 512 416;" xml:space="preserve">
<style type="text/css">
	.st0{fill:#FFFFFF;}
</style>
<path class="st0" d="M161,416c193.2,0,298.9-160.1,298.9-298.9c0-4.5,0-9.1-0.3-13.6c20.6-14.9,38.3-33.3,52.4-54.4
	c-19.2,8.5-39.5,14.1-60.3,16.5c21.9-13.1,38.3-33.8,46.2-58.1c-20.6,12.2-43.2,20.9-66.7,25.5C411.3,12,383.6,0,354.6,0
	c-57.7,0-105.1,47.5-105.1,105.1c0,8,0.9,16,2.7,23.8C167.7,124.7,88.9,84.8,35.6,19.2C7.9,66.9,22.3,128.7,68.2,159.4
	c-16.7-0.5-33.1-5-47.7-13.1v1.3c0,49.8,35.4,93.1,84.3,103c-15.5,4.2-31.7,4.8-47.4,1.8c13.7,42.7,53.3,72.1,98.1,73
	c-37.2,29.2-83.1,45.1-130.5,45.1c-8.4,0-16.7-0.5-25-1.5C48,399.7,103.9,416,161,416"/>
</svg>
