<?xml version="1.0" encoding="utf-8"?>
<!-- Generator: Adobe Illustrator 27.7.0, SVG Export Plug-In . SVG Version: 6.00 Build 0)  -->
<svg version="1.1" id="Layer_1" xmlns="http://www.w3.org/2000/svg" xmlns:xlink="http://www.w3.org/1999/xlink" x="0px" y="0px"
	 viewBox="0 0 128 90.7" style="enable-background:new 0 0 128 90.7;" xml:space="preserve">
<style type="text/css">
	.st0{fill-rule:evenodd;clip-rule:evenodd;fill:#FFFFFF;}
</style>
<path class="st0" d="M126.7,19.6c0,0-1.3-8.9-5.1-12.8c-4.9-5.1-10.3-5.2-12.8-5.5C90.9,0,64,0,64,0H64c0,0-26.9,0-44.8,1.3
	c-2.5,0.3-8,0.3-12.8,5.5c-3.8,3.9-5.1,12.8-5.1,12.8S0,30,0,40.4v9.8c0,10.4,1.3,20.9,1.3,20.9s1.2,8.9,5.1,12.8
	c4.9,5.1,11.3,5,14.1,5.5c10.2,1,43.5,1.3,43.5,1.3s26.9,0,44.8-1.3c2.5-0.3,8-0.3,12.8-5.5c3.8-3.9,5.1-12.8,5.1-12.8
	s1.3-10.4,1.3-20.9v-9.8C128,30,126.7,19.6,126.7,19.6z M50.8,62.1l0-36.2L85.4,44C85.4,44,50.8,62.1,50.8,62.1z"/>
</svg>
